<svg height="504pt" viewBox="0 0 504 504.44461" width="504pt" xmlns="http://www.w3.org/2000/svg"><path d="m410.230469 153.601562c-4.25 0-7.851563-3.132812-8.445313-7.34375-.589844-4.207031 2.003906-8.210937 6.089844-9.386718 35.332031-12.070313 64.1875-38.070313 79.847656-71.964844 1.898438-4.261719 6.867188-6.207031 11.15625-4.367188 4.289063 1.835938 6.304688 6.777344 4.527344 11.09375-17.480469 38.753907-50.4375 68.378907-90.828125 81.644532-.765625.210937-1.554687.320312-2.347656.324218zm0 0" fill="#804537"/><path d="m384.632812 136.535156c-3.332031 0-6.359374-1.9375-7.753906-4.960937-1.390625-3.027344-.898437-6.585938 1.265625-9.117188.515625-.582031 49.152344-58.121093 49.152344-113.921875 0-4.710937 3.820313-8.53124975 8.535156-8.53124975 4.710938 0 8.53125 3.82031275 8.53125 8.53124975 0 62.175782-51.078125 122.488282-53.253906 125.015625-1.613281 1.902344-3.984375 2.992188-6.476563 2.984375zm0 0" fill="#804537"/><path d="m359.03125 128.003906c-1.023438-.003906-2.035156-.1875-2.996094-.539062-2.121094-.792969-3.839844-2.398438-4.777344-4.457032-.9375-2.0625-1.019531-4.414062-.222656-6.535156.25-.648437 24.226563-65.703125 8.601563-104.769531-1.128907-2.832031-.664063-6.054687 1.222656-8.449219 1.886719-2.394531 4.910156-3.601562 7.925781-3.1640622 3.019532.4335942 5.578125 2.4492182 6.707032 5.2812502 18.082031 45.226562-7.382813 114.183594-8.464844 117.101562-1.253906 3.332032-4.4375 5.535156-7.996094 5.53125zm0 0" fill="#804537"/><path d="m333.433594 128.003906c-4.382813-.003906-8.046875-3.324218-8.484375-7.679687-2.296875-22.71875-13.804688-85.839844-39.304688-104.960938-3.769531-2.828125-4.535156-8.175781-1.707031-11.945312 2.828125-3.773438 8.175781-4.535157 11.949219-1.707031 36.691406 27.535156 45.675781 113.277343 46.078125 116.90625.238281 2.265624-.441406 4.53125-1.882813 6.292968-1.441406 1.765625-3.527343 2.878906-5.796875 3.09375-.289062 0-.582031 0-.851562 0zm0 0" fill="#804537"/><path d="m307.832031 128.003906c-3.371093 0-6.429687-1.980468-7.800781-5.0625-.324219-.742187-33.800781-74.460937-98.414062-106.726562-4.21875-2.105469-5.929688-7.230469-3.824219-11.449219 2.109375-4.21875 7.234375-5.929687 11.453125-3.824219 70.195312 35.105469 104.960937 111.855469 106.386718 115.105469 1.152344 2.636719.898438 5.675781-.671874 8.085937-1.570313 2.410157-4.253907 3.863282-7.128907 3.871094zm0 0" fill="#804537"/><path d="m128.632812 256.003906c-.355468 2.742188-1.195312 5.398438-2.476562 7.851563-2.132812 6.910156-4.523438 13.652343-7.082031 20.394531-6.738281 18.78125-15.496094 36.777344-26.113281 53.671875-12.03125 18.519531-31.65625 39.9375-55.378907 25.429687-8.289062-5.378906-14.796875-13.101562-18.6875-22.1875-2.480469-5.210937-4.480469-10.636718-5.976562-16.210937-.425781-1.621094-.851563-3.242187-1.191407-4.863281-5.429687-22.941406-8.96875-46.285156-10.582031-69.804688v-.085937c-.171875-1.363281-.257812-2.730469-.34375-4.09375v-.257813c-.992187-17.917968-.707031-35.882812.855469-53.757812.171875-2.5625.425781-5.121094.683594-7.851563v-.085937c.339844-3.667969.765625-7.425782 1.191406-11.347656 2.816406-23.894532 8.277344-50.007813 23.128906-67.585938v-.085938l1.789063-2.046874c3-3.269532 6.484375-6.058594 10.328125-8.277344 3.925781-2.152344 8.199218-3.597656 12.628906-4.265625 16.210938-2.476563 28.925781 11.6875 37.203125 23.722656 5.976563 8.804687 11.171875 18.113281 15.53125 27.816406 6.605469 14.738281 11.945313 30.011719 15.957031 45.65625 0 0 .34375 2.472657.769532 6.570313l2.304687 17.917968 4.777344 38.144532c.425781 3.5.683593 5.632812.683593 5.632812zm0 0" fill="#804537"/><path d="m270.113281 134.402344-41.214843 83.199218-105.726563-5.375-20.824219-1.023437 1.792969-69.121094c2.464844-6.273437 5.402344-12.347656 8.789063-18.175781 2.554687-4.441406 5.34375-8.742188 8.363281-12.882812 4.628906-6.554688 9.984375-12.566407 15.957031-17.921876 2.996094-2.761718 6.191406-5.300781 9.558594-7.59375 4.960937-3.515624 10.316406-6.4375 15.957031-8.703124 2.855469-1.152344 5.832031-1.980469 8.875-2.476563 6.4375-1.050781 13.019531-.820313 19.371094.683594 33.707031 7.851562 65.707031 45.992187 79.101562 59.390625zm0 0" fill="#804537"/><path d="m225.828125 286.125c-37.207031-28.328125-84.824219-48.894531-106.839844-30.976562l1.109375.855468s-25.597656-17.066406-8.53125-68.265625c8.53125 8.53125 25.597656 17.066407 59.730469 0 34.136719-17.070312 34.136719-34.136719 110.933594-59.734375 76.800781-25.601562 136.535156 25.597656 153.601562 42.664063.863281.851562 1.664063 1.761719 2.390625 2.734375l20.476563 37.460937c2.625 4.671875 6.535156 8.492188 11.265625 11.007813 17.066406 8.53125 27.5625 17.152344 25.601562 34.132812-3.925781 34.644532-18.773437 53.757813-37.035156 64.085938zm0 0" fill="#cc6f56"/><path d="m469.707031 481.964844c-4.496093 3.917968-9.453125 7.269531-14.761719 9.984375-5.183593 2.738281-10.648437 4.910156-16.296874 6.484375-6.527344 1.804687-13.167969 3.144531-19.882813 4.011718-5.546875.769532-11.265625 1.367188-16.980469 1.621094-20.042968.996094-40.136718.023438-59.992187-2.902344-5.800781-.851562-11.605469-1.875-17.234375-3.242187-5.632813-1.363281-11.179688-2.898437-16.554688-4.691406-23.988281-8.097657-46.121094-20.890625-65.109375-37.632813-1.28125-1.195312-2.648437-2.304687-3.925781-3.667968-4.984375-4.402344-9.449219-9.355469-13.3125-14.765626-6.300781-7.894531-10.101562-17.492187-10.921875-27.5625-.132813-14.824218 4.015625-29.371093 11.945313-41.898437 8.105468-14.078125 23.125-37.375 38.484374-45.054687-51.199218 25.601562-128 18.6875-119.464843 1.621093 8.53125-17.066406 136.53125-51.199219 136.53125-51.199219-9.429688-1.035156-18.726563-3.0625-27.730469-6.058593-4.554688-1.195313-8.613281-3.792969-11.605469-7.425781-11.863281-20.648438 90.539063-20.648438 144.980469-19.539063 4.101562.519531 7.613281 3.1875 9.214844 6.996094 1.492187 4.175781 2.550781 8.492187 3.15625 12.886719 2.371094 6.007812 6.542968 11.136718 11.949218 14.675781 35.582032 26.710937 69.375 65.023437 79.699219 109.398437 8.535157 36.605469 3.5 75.09375-22.1875 97.960938zm0 0" fill="#804537"/><path d="m469.964844 187.738281c0 14.136719-11.460938 25.597657-25.601563 25.597657-14.136719 0-25.597656-11.460938-25.597656-25.597657 0-14.140625 11.460937-25.601562 25.597656-25.601562 14.140625 0 25.601563 11.460937 25.601563 25.601562zm0 0" fill="#e6e7e8"/><path d="m452.898438 273.070312c-3.144532-.003906-6.035157-1.738281-7.519532-4.511718-1.480468-2.773438-1.316406-6.140625.429688-8.757813 19.035156-28.542969 39.011718-29.398437 41.222656-29.398437 4.714844-.050782 8.574219 3.726562 8.628906 8.441406.050782 4.710938-3.726562 8.574219-8.441406 8.625-.851562.0625-13.515625 1.238281-27.222656 21.804688-1.582032 2.371093-4.246094 3.796874-7.097656 3.796874zm0 0" fill="#5e5f62"/><g fill="#cc6f56"><path d="m233.078125 153.347656c-.667969.167969-1.355469.253906-2.046875.253906-3.894531.007813-7.304688-2.625-8.277344-6.398437-.085937-.511719-8.789062-32.171875-48.214844-63.742187-2.796874-2.125-3.960937-5.78125-2.898437-9.132813 6.4375-1.050781 13.019531-.820313 19.371094.683594 39.421875 33.875 47.957031 66.558593 48.296875 68.011719 1.128906 4.570312-1.660156 9.191406-6.230469 10.324218zm0 0"/><path d="m198.605469 170.5c-.566407.09375-1.136719.152344-1.707031.167969-4.054688.003906-7.550782-2.851563-8.363282-6.824219-2.03125-7.964844-5.101562-15.625-9.128906-22.785156-8.882812-16.457032-22.027344-30.222656-38.058594-39.851563-2.847656-1.65625-4.453125-4.832031-4.097656-8.105469 2.996094-2.761718 6.191406-5.300781 9.558594-7.59375 1.144531.089844 2.253906.441407 3.242187 1.023438 27.457031 16.355469 47.3125 42.929688 55.210938 73.898438.453125 2.21875.003906 4.523437-1.242188 6.414062-1.25 1.886719-3.195312 3.203125-5.414062 3.65625zm0 0"/><path d="m165.496094 195.84375c-.886719.257812-1.804688.402344-2.730469.425781-3.667969.007813-6.933594-2.328125-8.105469-5.800781-4.523437-13.484375-20.3125-51.285156-39.253906-63.917969-1.015625-.683593-1.859375-1.585937-2.476562-2.644531 2.554687-4.441406 5.34375-8.742188 8.363281-12.882812 1.246093.214843 2.4375.675781 3.5 1.363281 27.730469 18.433593 45.3125 70.484375 46.078125 72.617187 1.464844 4.476563-.925782 9.296875-5.375 10.839844zm0 0"/><path d="m83.492188 270.59375c-21.03125 21.203125-40.726563 43.6875-58.96875 67.328125-1.363282 1.796875-3.394532 2.964844-5.628907 3.242187-2.480469-5.210937-4.480469-10.636718-5.976562-16.210937 18.140625-23.304687 37.660156-45.503906 58.453125-66.476563 3.347656-3.34375 8.773437-3.34375 12.121094 0 3.34375 3.347657 3.34375 8.773438 0 12.117188zm0 0"/><path d="m9.164062 256.003906c-3.761718.003906-7.082031-2.457031-8.175781-6.054687-1.09375-3.601563.300781-7.492188 3.433594-9.578125 19.425781-11.878906 41.707031-18.269532 64.476563-18.5 4.710937 0 8.535156 3.820312 8.535156 8.53125 0 4.714844-3.824219 8.535156-8.535156 8.535156-19.394532.242188-38.375 5.636719-54.996094 15.632812-1.402344.933594-3.050782 1.433594-4.738282 1.433594zm0 0"/><path d="m83.492188 168.195312c-3.367188 3.300782-8.753907 3.300782-12.121094 0-34.472656-34.476562-43.945313-60.84375-44.710938-62.976562v-.085938l1.789063-2.046874c3-3.269532 6.484375-6.058594 10.328125-8.277344 1.9375 1.035156 3.402344 2.777344 4.09375 4.863281.085937.425781 8.703125 24.578125 40.621094 56.40625 3.324218 3.351563 3.324218 8.761719 0 12.117187zm0 0"/><path d="m77.433594 196.269531c0 4.714844-3.824219 8.535157-8.535156 8.535157-22.757813-.230469-45.023438-6.628907-64.425782-18.519532-.8125-.570312-1.53125-1.261718-2.132812-2.046875 0 0-.085938 0 0-.085937.339844-3.667969.765625-7.425782 1.191406-11.347656 2.886719-2.554688 7.132812-2.835938 10.328125-.683594 5.074219 3.082031 10.414063 5.710937 15.957031 7.851562 12.4375 4.96875 25.6875 7.601563 39.082032 7.765625 4.710937 0 8.535156 3.820313 8.535156 8.53125zm0 0"/><path d="m469.707031 481.964844c-4.496093 3.917968-9.453125 7.269531-14.761719 9.984375-1.242187-1.390625-1.964843-3.171875-2.046874-5.035157-.085938-1.449218-9.046876-141.226562-72.789063-180.992187-4.007813-2.496094-5.230469-7.769531-2.730469-11.773437 2.496094-4.007813 7.769532-5.230469 11.777344-2.730469 65.535156 41.042969 78.589844 166.226562 80.550781 190.546875zm0 0"/><path d="m418.765625 502.445312c-5.546875.769532-11.265625 1.367188-16.980469 1.621094-.070312-.191406-.101562-.394531-.085937-.597656 0-1.277344-.511719-124.925781-40.191407-164.605469-3.347656-3.347656-3.347656-8.773437 0-12.117187 3.34375-3.347656 8.769532-3.347656 12.117188 0 43.007812 43.089844 45.054688 162.472656 45.140625 175.699218zm0 0"/><path d="m324.558594 497.921875c-5.632813-1.363281-11.179688-2.898437-16.554688-4.691406.261719-1.058594.695313-2.066407 1.277344-2.988281.171875-.425782 20.394531-31.914063 20.394531-89.683594-.070312-16.488282-1.613281-32.9375-4.605469-49.152344-.832031-4.617188 2.214844-9.035156 6.824219-9.898438 2.222657-.433593 4.523438.042969 6.386719 1.328126 1.863281 1.285156 3.128906 3.265624 3.511719 5.496093 15.957031 87.894531-11.347657 139.777344-17.234375 149.589844zm0 0"/><path d="m299.214844 351.234375c-8.023438 47.789063-22.53125 79.273437-43.179688 93.527344-5.097656 3.605469-10.925781 6.050781-17.066406 7.167969-4.984375-4.402344-9.449219-9.355469-13.3125-14.765626 1.910156-1.554687 4.386719-2.238281 6.824219-1.875 1.195312.171876 34.902343 2.902344 49.835937-86.785156.488282-3.019531 2.550782-5.546875 5.40625-6.632812 2.859375-1.085938 6.078125-.566406 8.449219 1.363281 2.371094 1.933594 3.527344 4.984375 3.042969 8zm0 0"/><path d="m324.898438 298.667969c0 4.714843-3.820313 8.535156-8.535157 8.535156-4.710937 0-8.53125-3.820313-8.53125-8.535156 0-4.710938 3.820313-8.53125 8.53125-8.53125 4.714844 0 8.535157 3.820312 8.535157 8.53125zm0 0"/><path d="m359.03125 273.070312c0 4.710938-3.820312 8.53125-8.53125 8.53125-4.714844 0-8.535156-3.820312-8.535156-8.53125 0-4.714843 3.820312-8.535156 8.535156-8.535156 4.710938 0 8.53125 3.820313 8.53125 8.535156zm0 0"/></g><path d="m376.097656 170.667969c0 4.714843-3.820312 8.535156-8.53125 8.535156-4.714844 0-8.535156-3.820313-8.535156-8.535156 0-4.710938 3.820312-8.53125 8.535156-8.53125 4.710938 0 8.53125 3.820312 8.53125 8.53125zm0 0" fill="#d1d4d1"/><path d="m452.898438 187.738281c0 4.710938-3.820313 8.53125-8.535157 8.53125-4.710937 0-8.53125-3.820312-8.53125-8.53125 0-4.714843 3.820313-8.535156 8.53125-8.535156 4.714844 0 8.535157 3.820313 8.535157 8.535156zm0 0" fill="#2c2f38"/><path d="m324.898438 162.136719c0 4.710937-3.820313 8.53125-8.535157 8.53125-4.710937 0-8.53125-3.820313-8.53125-8.53125 0-4.714844 3.820313-8.535157 8.53125-8.535157 4.714844 0 8.535157 3.820313 8.535157 8.535157zm0 0" fill="#d1d4d1"/><path d="m273.699219 179.203125c0 4.710937-3.820313 8.535156-8.535157 8.535156-4.710937 0-8.53125-3.824219-8.53125-8.535156s3.820313-8.535156 8.53125-8.535156c4.714844 0 8.535157 3.824219 8.535157 8.535156zm0 0" fill="#d1d4d1"/><path d="m213.964844 204.804688c0 4.710937-3.820313 8.53125-8.53125 8.53125-4.714844 0-8.535156-3.820313-8.535156-8.53125 0-4.714844 3.820312-8.535157 8.535156-8.535157 4.710937 0 8.53125 3.820313 8.53125 8.535157zm0 0" fill="#d1d4d1"/><path d="m128.632812 435.203125c0 9.425781-7.640624 17.066406-17.066406 17.066406-9.425781 0-17.066406-7.640625-17.066406-17.066406s7.640625-17.066406 17.066406-17.066406c9.425782 0 17.066406 7.640625 17.066406 17.066406zm0 0" fill="#547580"/><path d="m162.765625 460.804688c0 4.710937-3.820313 8.53125-8.535156 8.53125-4.710938 0-8.53125-3.820313-8.53125-8.53125 0-4.714844 3.820312-8.535157 8.53125-8.535157 4.714843 0 8.535156 3.820313 8.535156 8.535157zm0 0" fill="#84b5cb"/><path d="m94.5 25.601562c0 9.425782-7.644531 17.066407-17.066406 17.066407-9.425782 0-17.070313-7.640625-17.070313-17.066407 0-9.425781 7.644531-17.066406 17.070313-17.066406 9.421875 0 17.066406 7.640625 17.066406 17.066406zm0 0" fill="#84b5cb"/><path d="m34.765625 42.667969c0 4.714843-3.820313 8.535156-8.535156 8.535156-4.710938 0-8.53125-3.820313-8.53125-8.535156 0-4.710938 3.820312-8.53125 8.53125-8.53125 4.714843 0 8.535156 3.820312 8.535156 8.53125zm0 0" fill="#547580"/><path d="m444.363281 179.203125c0 4.710937-3.820312 8.535156-8.53125 8.535156-4.714843 0-8.535156-3.824219-8.535156-8.535156s3.820313-8.535156 8.535156-8.535156c4.710938 0 8.53125 3.824219 8.53125 8.535156zm0 0" fill="#e6e7e8"/></svg>