<?xml version="1.0" encoding="iso-8859-1"?>
<!-- Generator: Adobe Illustrator 19.0.0, SVG Export Plug-In . SVG Version: 6.00 Build 0)  -->
<svg version="1.1" id="Capa_1" xmlns="http://www.w3.org/2000/svg" xmlns:xlink="http://www.w3.org/1999/xlink" x="0px" y="0px"
	 viewBox="0 0 512 512" style="enable-background:new 0 0 512 512;" xml:space="preserve">
<g>
	<path style="fill:#B0EBE1;" d="M200.321,236.793l-58.723,18.693c-4.242-4.765-7.492-10.104-9.759-15.746
		c-7.816-19.487-3.835-42.61,11.954-58.409l0.533-0.533l40.207,40.207L200.321,236.793z"/>
	<path style="fill:#B0EBE1;" d="M393.74,234.598L233.6,230.304l-16.896-16.896l-13.291-13.291
		c-42.443-42.443-42.443-111.26,0-153.703l1.076-1.066L393.74,234.598z"/>
</g>
<g>
	<path style="fill:#80CDD6;" d="M184.532,221.004l15.788,15.788l-58.723,18.693c-4.242-4.765-7.492-10.104-9.759-15.746
		c8.923-3.918,18.118-7.534,27.543-10.835C167.595,226.03,175.975,223.387,184.532,221.004z"/>
	<path style="fill:#80CDD6;" d="M393.74,234.598L233.6,230.304l-16.896-16.896c27.219-5.318,55.787-8.15,85.242-8.15
		c23.134,0,45.714,1.745,67.531,5.078L393.74,234.598z"/>
</g>
<path style="fill:#88C9DB;" d="M512,280.156c-3.668,12.497-8.411,24.524-14.148,35.975l-0.01,0.01
	c-18.306,36.644-46.592,67.437-81.292,88.795c-4.66,2.884-9.425,5.58-14.305,8.098c-30.051,15.517-64.146,24.283-100.299,24.283
	c-99.452,0-183.399-66.329-210.054-157.162c20.657-12.351,43.29-22.925,67.489-31.399c43.3-15.172,91.605-23.646,142.564-23.646
	c28.766,0,56.685,2.706,83.34,7.784c5.695,1.087,11.316,2.278,16.885,3.574C442.567,245.894,479.703,260.846,512,280.156z"/>
<path style="fill:#56A0BF;" d="M497.84,316.137c-35.892,71.846-110.131,121.176-195.895,121.176
	c-99.452,0-183.399-66.329-210.054-157.162c20.657-12.351,43.29-22.925,67.489-31.399v0.01
	C159.38,308.813,309.06,456.685,497.84,316.137z"/>
<circle style="fill:#FFFFFF;" cx="431.622" cy="311.596" r="26.279"/>
<path style="fill:#393B85;" d="M431.627,322.045c-4.235,0-8.165-2.664-9.717-6.607c-1.6-4.06-0.46-8.817,2.827-11.695
	c3.334-2.919,8.27-3.389,12.109-1.188c3.83,2.195,5.9,6.76,5.021,11.089C440.887,318.466,436.558,322.045,431.627,322.045z"/>
<g>
	<path style="fill:#56A0BF;" d="M333.322,377.504c-13.923,0-25.251-11.328-25.251-25.251c0-6.745,2.657-12.88,6.982-17.414
		c-4.324-4.534-6.982-10.668-6.982-17.414s2.657-12.88,6.982-17.414c-4.324-4.534-6.982-10.669-6.982-17.414
		c0-13.923,11.328-25.251,25.251-25.251c4.328,0,7.837,3.509,7.837,7.837c0,4.328-3.509,7.837-7.837,7.837
		c-5.281,0-9.577,4.297-9.577,9.577c0,5.281,4.297,9.577,9.577,9.577c4.328,0,7.837,3.509,7.837,7.837
		c0,4.328-3.509,7.837-7.837,7.837c-5.281,0-9.577,4.297-9.577,9.577c0,5.281,4.297,9.577,9.577,9.577
		c4.328,0,7.837,3.509,7.837,7.837c0,4.328-3.509,7.837-7.837,7.837c-5.281,0-9.577,4.297-9.577,9.577
		c0,5.281,4.297,9.577,9.577,9.577c4.328,0,7.837,3.509,7.837,7.837C341.159,373.995,337.65,377.504,333.322,377.504z"/>
	<path style="fill:#56A0BF;" d="M278.988,343.846c-13.923,0-25.251-11.328-25.251-25.251c0-6.745,2.657-12.88,6.982-17.414
		c-4.324-4.534-6.982-10.669-6.982-17.414c0-13.923,11.328-25.251,25.251-25.251c4.328,0,7.837,3.509,7.837,7.837
		s-3.509,7.837-7.837,7.837c-5.281,0-9.577,4.297-9.577,9.577c0,5.281,4.297,9.577,9.577,9.577c4.328,0,7.837,3.509,7.837,7.837
		c0,4.328-3.509,7.837-7.837,7.837c-5.281,0-9.577,4.297-9.577,9.577c0,5.281,4.297,9.577,9.577,9.577
		c4.328,0,7.837,3.509,7.837,7.837C286.825,340.337,283.316,343.846,278.988,343.846z"/>
	<path style="fill:#56A0BF;" d="M416.55,404.936c-4.66,2.884-9.425,5.58-14.305,8.098c-27.167-25.965-42.694-62.202-42.694-99.849
		c0-29.111,8.882-56.79,25.736-80.289c5.695,1.087,11.316,2.278,16.885,3.574l-2.173,2.873
		c-16.206,21.389-24.774,46.926-24.774,73.842c0,34.157,14.419,67.019,39.58,90.142L416.55,404.936z"/>
</g>
<g>
	<path style="fill:#B0EBE1;" d="M244.508,378.471L177.679,445.3l0.695,0.695c27.542,27.542,72.197,27.542,99.74,0l16.96-16.96
		c5.911-5.911,5.911-15.495,0-21.406l-29.159-29.159C260.002,372.56,250.419,372.56,244.508,378.471z"/>
	<path style="fill:#B0EBE1;" d="M91.885,280.156c11.284-27.98,8.032-61.011-11.483-86.831C60.888,167.503,29.998,155.362,0,158.582
		L91.885,280.156z"/>
</g>
<path style="fill:#80CDD6;" d="M91.885,280.156c11.284,27.98,8.032,61.011-11.483,86.831C60.888,392.807,29.998,404.949,0,401.728
	L91.885,280.156z"/>
<g>
</g>
<g>
</g>
<g>
</g>
<g>
</g>
<g>
</g>
<g>
</g>
<g>
</g>
<g>
</g>
<g>
</g>
<g>
</g>
<g>
</g>
<g>
</g>
<g>
</g>
<g>
</g>
<g>
</g>
</svg>
