<?xml version="1.0" encoding="iso-8859-1"?>
<!-- Generator: Adobe Illustrator 19.0.0, SVG Export Plug-In . SVG Version: 6.00 Build 0)  -->
<svg version="1.1" id="Capa_1" xmlns="http://www.w3.org/2000/svg" xmlns:xlink="http://www.w3.org/1999/xlink" x="0px" y="0px"
	 viewBox="0 0 512.001 512.001" style="enable-background:new 0 0 512.001 512.001;" xml:space="preserve">
<path style="fill:#605D9C;" d="M151.511,268.82l-32.946,41.389l-24.931,12.863l-77.751,40.103C5.287,332.267,0,300.031,0,267.796
	c0-32.225,5.287-64.46,15.883-95.368l77.605,40.02l25.078,12.936L151.511,268.82z"/>
<path style="fill:#393B85;" d="M372.135,91.198L372.135,91.198c0-19.887-16.121-36.007-36.007-36.007H78.368l78.726,47.798"/>
<path style="fill:#FFE563;" d="M453.645,264.672v-91.964c0-45.017-36.493-81.51-81.51-81.51H199.052
	c-44.452,0-80.488,36.036-80.488,80.488v146.699c0,42.506,34.458,76.964,76.965,76.964h198.834h59.284h8.603h13.591
	c19.971,0,36.161-16.19,36.161-36.161v-7.152c0-14.759-9.046-27.833-22.646-33.565C468.373,309.627,453.645,288.87,453.645,264.672z
	"/>
<path style="fill:#393B85;" d="M151.511,268.82l-32.946,41.389l-24.931,12.863c-0.094-1.546-0.146-3.114-0.146-4.692V212.447
	l25.078,12.936L151.511,268.82z"/>
<path style="fill:#FFC745;" d="M505.366,374.974h-59.284H247.248c-42.506,0-76.963-34.458-76.963-76.964V151.311
	c0-23.883,10.412-45.327,26.933-60.067c-43.602,0.978-78.653,36.604-78.653,80.442v146.699c0,42.506,34.458,76.963,76.963,76.963
	h198.834h59.284h8.602h13.591c14.311,0,26.677-8.314,32.539-20.375L505.366,374.974L505.366,374.974z"/>
<circle style="fill:#FFFFFF;" cx="401.243" cy="317.463" r="25.923"/>
<path style="fill:#393B85;" d="M401.243,327.909c-4.369,0-8.357-2.83-9.827-6.934c-1.448-4.04-0.213-8.703,3.068-11.479
	c3.43-2.902,8.456-3.264,12.273-0.903c3.661,2.264,5.561,6.689,4.726,10.905C410.528,324.321,406.163,327.909,401.243,327.909z"/>
<g>
	<path style="fill:#605D9C;" d="M210.026,237.004L210.026,237.004V91.198h48.066v97.74
		C258.091,215.484,236.572,237.004,210.026,237.004z"/>
	<path style="fill:#605D9C;" d="M306.925,237.004L306.925,237.004V91.198h48.066v97.74
		C354.991,215.484,333.471,237.004,306.925,237.004z"/>
	<path style="fill:#605D9C;" d="M217.325,345.339v111.471l0,0c44.425,0,80.439-36.014,80.439-80.439v-31.033"/>
</g>
<g>
</g>
<g>
</g>
<g>
</g>
<g>
</g>
<g>
</g>
<g>
</g>
<g>
</g>
<g>
</g>
<g>
</g>
<g>
</g>
<g>
</g>
<g>
</g>
<g>
</g>
<g>
</g>
<g>
</g>
</svg>
