<svg height="464pt" viewBox="0 0 464 464" width="464pt" xmlns="http://www.w3.org/2000/svg"><path d="m445.121094 202.878906c12.078125 17.359375 18.878906 29.121094 18.878906 29.121094s-37.199219 64.558594-93.921875 113.761719c-7.359375-8.082031-13.757813-16.722657-19.117187-25.761719-6.320313-10.238281-11.359376-20.960938-15.199219-32-19.839844-57.039062-8.402344-122.558594 34.316406-169.761719 32.480469 28.242188 58.5625 61.441407 75.042969 84.640625zm-45.121094-10.878906c0-8.800781-7.199219-16-16-16s-16 7.199219-16 16 7.199219 16 16 16 16-7.199219 16-16zm0 0" fill="#ffcf54"/><path d="m400 192c0 8.835938-7.164062 16-16 16s-16-7.164062-16-16 7.164062-16 16-16 16 7.164062 16 16zm0 0" fill="#3b668f"/><path d="m120 144-40-40 104-104 72 72zm0 0" fill="#ffcf54"/><path d="m170.339844 53.65625 11.3125-11.316406 40 40-11.316406 11.316406zm0 0" fill="#3b668f"/><path d="m139.234375 86.554688 11.316406-11.316407 20.152344 20.15625-11.3125 11.3125zm0 0" fill="#3b668f"/><path d="m350.960938 320c5.359374 9.039062 11.757812 17.679688 19.117187 25.761719-13.199219 11.359375-27.4375 21.917969-42.476563 30.636719-24.640624 14.242187-51.441406 23.601562-79.601562 23.601562-35.921875 0-69.761719-15.199219-99.519531-36.480469-25.359375-18.160156-47.839844-40.640625-66.082031-61.917969-12.636719-14.722656-23.277344-28.882812-31.519532-40.480468l-35.199218 35.199218c-5.839844 5.839844-15.679688 1.757813-15.679688-6.398437 0-1.28125.238281-2.480469.71875-3.683594l23.28125-54.238281-23.28125-54.238281c-.480469-1.203125-.71875-2.402344-.71875-3.683594 0-5.519531 4.480469-9.117187 9.199219-9.117187 2.242187 0 4.5625.800781 6.480469 2.71875l35.199218 35.199218c13.601563-19.117187 33.679688-45.117187 58.5625-69.4375 14.636719-14.242187 30.957032-28.082031 48.558594-39.441406 13.519531-8.800781 27.761719-16.238281 42.558594-21.441406 15.28125-5.4375 31.121094-8.558594 47.441406-8.558594 45.359375 0 87.359375 24.238281 122.078125 54.238281-42.71875 47.203125-54.15625 112.722657-34.316406 169.761719h-71.761719c10.238281 10.238281 22.320312 18.238281 35.441406 23.679688 13.117188 5.441406 27.277344 8.320312 41.839844 8.320312zm0 0" fill="#f49d5d"/><path d="m350.960938 320h-9.679688c-14.5625 0-28.722656-2.878906-41.839844-8.320312-13.121094-5.441407-25.203125-13.441407-35.441406-23.679688h71.761719c3.839843 11.039062 8.878906 21.761719 15.199219 32zm0 0" fill="#ffcf54"/><path d="m327.601562 376.398438-48 48c-12.722656 12.722656-27.601562 22.5625-43.839843 29.28125-16.242188 6.800781-33.839844 10.320312-51.761719 10.320312l64-64c28.160156 0 54.960938-9.359375 79.601562-23.601562zm0 0" fill="#ffcf54"/><path d="m148.480469 363.519531-44.480469 44.480469-64-64 42.398438-42.398438c18.242187 21.277344 40.722656 43.757813 66.082031 61.917969zm0 0" fill="#ffcf54"/><g fill="#3b668f"><path d="m378.339844 258.339844 61.117187-61.113282 11.3125 11.3125-61.117187 61.117188zm0 0"/><path d="m288 136h16v16h-16zm0 0"/><path d="m256 136h16v16h-16zm0 0"/><path d="m224 136h16v16h-16zm0 0"/></g></svg>